<svg xmlns="http://www.w3.org/2000/svg" xmlns:xlink="http://www.w3.org/1999/xlink" version="1.1" x="0px" y="0px" viewBox="0 0 512 640" style="enable-background:new 0 0 512 512;" xml:space="preserve"><g><g><g><g><path d="M194.95,364.71h-0.28c-5.11,0-9.38-3.83-9.94-8.9c-1.77-16.12-14.75-29.109-30.88-30.88c-5.07-0.56-8.9-4.83-8.9-9.939      V120.17c0-2.43,0.88-4.76,2.47-6.58c1.58-1.82,3.78-3.01,6.18-3.33l171.9-23.44c0.45-0.07,0.91-0.1,1.359-0.1      c4.98,0,9.23,3.72,9.9,8.65c0.24,1.75,0.01,3.53-0.65,5.15c2.101,0.82,3.891,2.35,5.021,4.31c1.34,2.31,1.689,5.01,1,7.59      c-0.69,2.58-2.34,4.74-4.65,6.07c-1.52,0.88-3.25,1.35-5,1.35c-3.56,0-6.88-1.92-8.67-5c-1.31-2.28-1.68-4.92-1.029-7.47      L164.95,128.89v177.9c7.36,2.09,14.09,5.62,20,10.5v-33.311c0-5.51,4.49-10,10-10c5.52,0,10,4.49,10,10v70.73      c0,2.63-1.06,5.21-2.93,7.07C200.16,363.64,197.58,364.71,194.95,364.71z M374.96,333.13h-0.49c-4.93,0-9.18-3.68-9.89-8.55      c-2.29-15.73-14.931-27.92-30.73-29.65c-5.069-0.56-8.89-4.83-8.89-9.939V177.07l-127.93,17.45h-0.01      c-0.45,0.06-0.91,0.09-1.36,0.09c-4.21,0-7.99-2.66-9.4-6.62c-0.24-0.65-0.4-1.33-0.5-2.03c-0.06-0.46-0.09-0.93-0.09-1.4      c0.02-4.95,3.74-9.19,8.65-9.86l139.28-18.99c2.851-0.39,5.771,0.49,7.931,2.38c2.18,1.9,3.42,4.64,3.42,7.53v111.17      c7.359,2.09,14.09,5.62,20,10.5V159.12l-0.271-0.24c-1.77-1.58-3.59-3.21-5.36-4.8c-4.1-3.69-4.439-10.03-0.75-14.12      c1.891-2.11,4.61-3.32,7.44-3.32c2.47,0,4.84,0.91,6.68,2.56c1.49,1.34,3,2.7,4.54,4.07c1.45,1.3,2.92,2.61,4.41,3.95      c2.141,1.92,3.311,4.56,3.311,7.44v168.47c0,2.63-1.061,5.21-2.931,7.07C380.17,332.06,377.59,333.13,374.96,333.13z       M194.95,243.98c-5.51,0-10-4.48-10-10c0-5.51,4.49-9.99,10-9.99c5.52,0,10,4.48,10,9.99      C204.95,239.5,200.47,243.98,194.95,243.98z"/></g><g><path d="M149.95,414.71L149.95,414.71c-7.42,0-14.63-1.46-21.41-4.32c-6.54-2.78-12.43-6.74-17.48-11.79      c-5.05-5.05-9.01-10.93-11.78-17.479c-2.87-6.78-4.32-13.98-4.33-21.41c0.01-7.43,1.46-14.63,4.33-21.41      c2.77-6.55,6.73-12.43,11.78-17.48c5.05-5.05,10.94-9.02,17.48-11.789c6.78-2.86,13.99-4.32,21.41-4.32c2,0,4.05,0.12,6.1,0.34      l0,0c6.27,0.7,12.31,2.45,17.96,5.2c5.5,2.68,10.49,6.229,14.83,10.569c4.34,4.341,7.9,9.33,10.58,14.83      c2.75,5.65,4.49,11.69,5.19,17.96c0.23,2.07,0.34,4.12,0.34,6.101c0,7.43-1.45,14.63-4.32,21.41      c-2.77,6.55-6.73,12.43-11.79,17.479c-5.05,5.05-10.93,9.01-17.48,11.79C164.58,413.25,157.38,414.71,149.95,414.71z       M149.95,324.71c-9.33,0-18.12,3.64-24.75,10.25c-6.6,6.62-10.24,15.41-10.25,24.75c0.01,9.34,3.65,18.13,10.25,24.75      c6.63,6.6,15.42,10.25,24.75,10.25c9.34,0,18.13-3.65,24.75-10.25c6.61-6.63,10.25-15.41,10.25-24.75      c0-1.25-0.07-2.561-0.22-3.9c-1.77-16.12-14.75-29.109-30.88-30.88c0.01,0,0,0,0,0C152.5,324.78,151.22,324.71,149.95,324.71z"/></g><g><path d="M329.95,384.71c-7.42,0-14.62-1.46-21.4-4.32c-6.55-2.77-12.44-6.74-17.49-11.79s-9.01-10.93-11.779-17.479      c-2.87-6.78-4.32-13.98-4.33-21.41c0.01-7.43,1.46-14.63,4.33-21.41c2.77-6.55,6.729-12.43,11.779-17.48      c5.05-5.05,10.94-9.02,17.49-11.789c6.78-2.86,13.98-4.32,21.4-4.32c1.979,0,4.029,0.109,6.1,0.34l0,0      c24.81,2.77,44.68,21.94,48.32,46.63c0.39,2.67,0.58,5.37,0.58,8.03c0,7.43-1.45,14.63-4.32,21.41      c-2.771,6.55-6.73,12.43-11.79,17.479c-5.05,5.05-10.93,9.021-17.48,11.79C344.58,383.25,337.38,384.71,329.95,384.71z       M329.95,294.71c-9.33,0-18.12,3.64-24.74,10.25c-6.61,6.62-10.25,15.41-10.26,24.75c0.01,9.34,3.649,18.12,10.26,24.75      c6.62,6.6,15.41,10.25,24.74,10.25c9.34,0,18.13-3.65,24.75-10.25c6.609-6.63,10.25-15.41,10.25-24.75      c0-1.7-0.12-3.42-0.37-5.13c-2.29-15.73-14.931-27.92-30.73-29.65c0.01,0,0.01,0,0,0C332.51,294.78,331.2,294.71,329.95,294.71z      "/></g><g><path d="M396.35,184.71c-2.63,0-5.21-1.07-7.069-2.93c-7.101-7.1-14.29-13.65-21.011-19.68c-1.54-1.39-3.069-2.76-4.59-4.12      c-9.59-8.57-18.64-16.67-26.43-25.22c-10.51-11.56-16.87-22.15-20.021-33.33c-1.51-5.36-2.279-10.89-2.27-16.44      c0-6.17,1.21-12.16,3.59-17.79c2.3-5.44,5.6-10.33,9.79-14.52c4.2-4.2,9.08-7.49,14.53-9.8c5.63-2.38,11.609-3.59,17.779-3.59      c0.15,0,0.29,0,0.44,0c10.52,0,19.86,3.07,27,8.88c2.979,2.41,5.68,5.22,8.26,8.59c2.57-3.37,5.271-6.18,8.26-8.59      c7.141-5.81,16.48-8.88,27-8.88c0.15,0,0.29,0,0.44,0l0,0c6.18,0,12.17,1.21,17.8,3.59c5.45,2.3,10.34,5.6,14.54,9.8      c4.2,4.19,7.5,9.08,9.8,14.52c2.38,5.63,3.591,11.62,3.601,17.79c0.02,10-2.431,19.76-7.28,29c-4.04,7.71-9.7,15.27-17.83,23.77      c-7.29,7.6-15.49,14.93-24.18,22.7c-8.19,7.32-16.66,14.89-25.08,23.32C401.56,183.64,398.979,184.71,396.35,184.71z       M360.649,57.29c-14.14,0.03-25.67,11.55-25.699,25.7c0.01,3.77,0.51,7.38,1.529,11.03c2.25,8.06,7.2,16.1,15.561,25.28      c6.979,7.68,15.7,15.48,25.79,24.51c1.25,1.12,2.52,2.25,3.8,3.41c4.35,3.9,9.5,8.56,14.72,13.53      c6.61-6.3,13-12.01,19.181-17.53c4.35-3.89,8.449-7.55,12.31-11.14c12.93-11.95,20.62-21.01,24.94-29.35      c3.399-6.55,4.989-12.82,5.01-19.74c-0.03-14.15-11.58-25.67-25.74-25.7c-7.72,0.09-11.44,1.79-14.95,4.5      c-3.859,3.04-7.72,8.51-11.81,16.74c-1.7,3.41-5.13,5.53-8.94,5.53c-3.81,0-7.24-2.12-8.95-5.53      c-4.08-8.22-7.939-13.7-11.8-16.74C372.09,59.08,368.37,57.38,360.649,57.29z"/></g></g><g><g><path d="M80.3,214.71L80.3,214.71c-9.32-0.01-16.34-0.82-22.75-2.62c-7.99-2.22-14.85-6.18-20.41-11.77      c-3.28-3.28-5.83-7.12-7.57-11.41c-1.68-4.15-2.53-8.51-2.52-12.98c-0.01-4.46,0.84-8.82,2.52-12.97      c1.74-4.29,4.29-8.13,7.57-11.42c3.37-3.37,6.99-5.91,10.78-7.57c3.74-1.65,7.99-2.53,12.29-2.53h0.09      c0.47,0,0.94,0.01,1.41,0.03c-0.02-0.47-0.03-0.94-0.03-1.4c-0.02-4.33,0.86-8.61,2.52-12.39c1.66-3.78,4.21-7.41,7.58-10.77      c3.28-3.28,7.12-5.83,11.4-7.58c4.15-1.68,8.51-2.54,12.97-2.54h0.1c4.45,0,8.8,0.85,12.94,2.54c4.28,1.74,8.11,4.28,11.39,7.56      c5.58,5.55,9.54,12.41,11.76,20.38c1.8,6.41,2.61,13.42,2.61,22.73c-0.01,6.42-0.37,12.95-0.76,19.86      c-0.42,7.48-0.85,15.21-0.84,23.26c0,2.63-1.07,5.2-2.93,7.06c-1.86,1.87-4.44,2.93-7.07,2.93h-0.21      c-7.96,0-15.61,0.43-23.01,0.84C93.23,214.34,86.71,214.7,80.3,214.71z M80.3,194.71L80.3,194.71h0.23      c5.38,0,11.43-0.34,17.83-0.69c4.84-0.27,9.85-0.55,15.16-0.73c0.18-5.33,0.46-10.35,0.74-15.21c0.36-6.49,0.7-12.63,0.69-18.08      c0.01-7.2-0.6-12.86-1.86-17.29c-1.41-4.9-3.4-8.39-6.65-11.68c-2.73-2.72-6.37-4.23-10.24-4.24      c-3.89,0.01-7.54,1.53-10.28,4.26c-1.65,1.65-2.73,3.13-3.4,4.66c-0.59,1.37-0.83,2.63-0.84,4.36      c-0.02,2.63,0.78,6.46,2.33,11.05v0.01c1.2,3.61,0.28,7.53-2.42,10.23c-1.89,1.89-4.4,2.93-7.06,2.93      c-1.08,0-2.15-0.17-3.17-0.52c-4.6-1.54-8.29-2.33-10.96-2.33h-0.1c-1.72,0.01-2.98,0.26-4.35,0.85      c-1.53,0.67-3.01,1.75-4.66,3.4c-2.73,2.73-4.23,6.37-4.25,10.24c0.02,3.88,1.52,7.52,4.25,10.25      c3.29,3.26,6.79,5.26,11.69,6.67c4.41,1.25,10.02,1.86,17.16,1.86H80.3z"/></g></g><g><path d="M114.95,474.71c-4.52,0-8.49-3.05-9.66-7.42c-0.69-2.58-0.33-5.28,1.01-7.59c1.34-2.311,3.5-3.96,6.08-4.65l300-80     c0.84-0.23,1.71-0.34,2.58-0.34c4.52,0,8.49,3.05,9.66,7.42c1.42,5.33-1.761,10.82-7.09,12.24l-300,80     C116.68,474.6,115.82,474.71,114.95,474.71z"/></g><g><path d="M264.95,464.71c-4.44,0-8.39-2.98-9.61-7.25c-1.52-5.3,1.56-10.851,6.87-12.37l210-60c0.899-0.25,1.82-0.38,2.75-0.38     c4.439,0,8.39,2.979,9.609,7.25c1.511,5.3-1.569,10.85-6.869,12.359l-210,60C266.8,464.58,265.88,464.71,264.95,464.71z"/></g></g></g><text x="0" y="527" fill="#000000" font-size="5px" font-weight="bold" font-family="'Helvetica Neue', Helvetica, Arial-Unicode, Arial, Sans-serif">Created by Flatart</text><text x="0" y="532" fill="#000000" font-size="5px" font-weight="bold" font-family="'Helvetica Neue', Helvetica, Arial-Unicode, Arial, Sans-serif">from the Noun Project</text></svg>